<?xml version="1.0" encoding="utf-8"?>
<!-- Generator: Adobe Illustrator 28.2.0, SVG Export Plug-In . SVG Version: 6.00 Build 0)  -->
<svg version="1.1" id="visual" xmlns="http://www.w3.org/2000/svg" xmlns:xlink="http://www.w3.org/1999/xlink" x="0px" y="0px"
	 viewBox="0 0 960 540" style="enable-background:new 0 0 960 540;" xml:space="preserve">
<style type="text/css">
	.st0{fill:#3B4F3E;}
	.st1{fill:#DEAA84;}
	.st2{fill:#D19B73;}
	.st3{fill:#C48B62;}
	.st4{fill:#B77C52;}
	.st5{fill:#AA6E42;}
	.st6{fill:#9D5F33;}
</style>
<rect class="st0" width="960" height="540"/>
<path class="st1" d="M0,341l13.3,1.7c13.4,1.6,40,5,66.7,9.8s53.3,11.2,80,15.5s53.3,6.7,80-3s53.3-31.3,80-32.8s53.3,17.1,80,16.6
	s53.3-20.1,80-24c26.7-3.8,53.3,8.2,80,11.9c26.7,3.6,53.3-1,80,6.1c26.7,7.2,53.3,26.2,80,34.2s53.3,5,80-8.7
	c26.7-13.6,53.3-38,80-43.3s53.3,8.3,66.7,15.2L960,347v194h-13.3c-13.4,0-40,0-66.7,0s-53.3,0-80,0s-53.3,0-80,0s-53.3,0-80,0
	s-53.3,0-80,0s-53.3,0-80,0s-53.3,0-80,0s-53.3,0-80,0s-53.3,0-80,0s-53.3,0-80,0s-53.3,0-80,0s-53.3,0-66.7,0H0V341z"/>
<path class="st2" d="M0,395l13.3-0.5c13.4-0.5,40-1.5,66.7,0s53.3,5.5,80,8.8c26.7,3.4,53.3,6,80,5.7s53.3-3.7,80-11.2
	s53.3-19.1,80-20c26.7-0.8,53.3,9.2,80,13.9c26.7,4.6,53.3,4,80-1.5s53.3-15.9,80-14.2s53.3,15.3,80,16.7c26.7,1.3,53.3-9.7,80-18.4
	c26.7-8.6,53.3-15,80-11.8s53.3,15.8,66.7,22.2L960,391v150h-13.3c-13.4,0-40,0-66.7,0s-53.3,0-80,0s-53.3,0-80,0s-53.3,0-80,0
	s-53.3,0-80,0s-53.3,0-80,0s-53.3,0-80,0s-53.3,0-80,0s-53.3,0-80,0s-53.3,0-80,0s-53.3,0-80,0s-53.3,0-66.7,0H0V395z"/>
<path class="st3" d="M0,432l13.3-5.3c13.4-5.4,40-16,66.7-13s53.3,19.6,80,23.6s53.3-4.6,80-14.3s53.3-20.3,80-21.8
	s53.3,6.1,80,14.5c26.7,8.3,53.3,17.3,80,22.6c26.7,5.4,53.3,7,80,2.7s53.3-14.7,80-17.5s53.3,1.8,80,4.2c26.7,2.3,53.3,2.3,80,5.6
	c26.7,3.4,53.3,10,80,8.9c26.7-1.2,53.3-10.2,66.7-14.7L960,423v118h-13.3c-13.4,0-40,0-66.7,0s-53.3,0-80,0s-53.3,0-80,0
	s-53.3,0-80,0s-53.3,0-80,0s-53.3,0-80,0s-53.3,0-80,0s-53.3,0-80,0s-53.3,0-80,0s-53.3,0-80,0s-53.3,0-80,0s-53.3,0-66.7,0H0V432z"
	/>
<path class="st4" d="M0,414l13.3,10.2c13.4,10.1,40,30.5,66.7,39.8s53.3,7.7,80-1.7c26.7-9.3,53.3-26.3,80-35.3s53.3-10,80-6.7
	c26.7,3.4,53.3,11,80,15.9c26.7,4.8,53.3,6.8,80,9.5c26.7,2.6,53.3,6,80,2.3s53.3-14.3,80-18s53.3-0.3,80,2.3
	c26.7,2.7,53.3,4.7,80,9.4c26.7,4.6,53.3,12,80,15.3s53.3,2.7,66.7,2.3L960,459v82h-13.3c-13.4,0-40,0-66.7,0s-53.3,0-80,0
	s-53.3,0-80,0s-53.3,0-80,0s-53.3,0-80,0s-53.3,0-80,0s-53.3,0-80,0s-53.3,0-80,0s-53.3,0-80,0s-53.3,0-80,0s-53.3,0-80,0
	s-53.3,0-66.7,0H0V414z"/>
<path class="st5" d="M0,458l13.3,7c13.4,7,40,21,66.7,22s53.3-11,80-19s53.3-12,80-12.7c26.7-0.6,53.3,2,80,4.4
	c26.7,2.3,53.3,4.3,80,9.6c26.7,5.4,53.3,14,80,18.2s53.3,3.8,80-3s53.3-20.2,80-24.7s53.3-0.1,80,2.4s53.3,3.1,80,5
	c26.7,1.8,53.3,4.8,80,3c26.7-1.9,53.3-8.5,66.7-11.9L960,455v86h-13.3c-13.4,0-40,0-66.7,0s-53.3,0-80,0s-53.3,0-80,0s-53.3,0-80,0
	s-53.3,0-80,0s-53.3,0-80,0s-53.3,0-80,0s-53.3,0-80,0s-53.3,0-80,0s-53.3,0-80,0s-53.3,0-80,0s-53.3,0-66.7,0H0V458z"/>
<path class="st6" d="M0,501l13.3-2.5c13.4-2.5,40-7.5,66.7-6.7c26.7,0.9,53.3,7.5,80,10.2s53.3,1.3,80-3.2s53.3-12.1,80-12
	c26.7,0.2,53.3,8.2,80,14.7s53.3,11.5,80,13.3c26.7,1.9,53.3,0.5,80-2.1c26.7-2.7,53.3-6.7,80-10.9c26.7-4.1,53.3-8.5,80-7.1
	c26.7,1.3,53.3,8.3,80,8.8s53.3-5.5,80-9.3c26.7-3.9,53.3-5.5,66.7-6.4L960,487v54h-13.3c-13.4,0-40,0-66.7,0s-53.3,0-80,0
	s-53.3,0-80,0s-53.3,0-80,0s-53.3,0-80,0s-53.3,0-80,0s-53.3,0-80,0s-53.3,0-80,0s-53.3,0-80,0s-53.3,0-80,0s-53.3,0-80,0
	s-53.3,0-66.7,0H0V501z"/>
</svg>
